<svg width="101" height="75" viewBox="0 0 101 75" fill="none" xmlns="http://www.w3.org/2000/svg">
<path d="M9.06834 9.69837C8.9266 9.62413 8.79865 9.48213 8.68448 9.2724C8.4333 8.63106 8.44078 7.99028 8.70692 7.35006C9.02423 6.58672 9.65887 5.95962 10.6108 5.46876C11.5966 4.96565 12.8061 4.78958 14.2391 4.94056C15.8683 5.10429 17.5745 5.42838 19.358 5.91284C21.1517 6.37267 22.9347 6.96188 24.7072 7.68045C26.5134 8.38677 28.2079 9.15446 29.7906 9.98353C30.3811 10.2929 30.9547 10.6084 31.5114 10.93C32.0681 11.2516 32.5961 11.5731 33.0953 11.8946C36.4244 14.0583 38.7834 16.1337 40.1724 18.1207C41.585 20.1201 42.0558 21.6861 41.585 22.8188C41.3905 23.2867 41.0527 23.6495 40.5716 23.9072C40.348 24.03 40.0535 24.1156 39.6882 24.1641C39.3567 24.2003 39.1082 24.1752 38.9429 24.0885C38.8012 24.0143 38.761 23.9033 38.8224 23.7556C38.8941 23.5832 39.1299 23.3619 39.5299 23.0917C39.9976 22.7969 40.3082 22.4649 40.4618 22.0955C40.7586 21.3814 40.5519 20.5985 39.8417 19.7466C39.1653 18.8826 38.161 18.0116 36.8287 17.1338C35.5303 16.2437 34.0898 15.3842 32.5071 14.5551C31.4205 13.9859 30.3067 13.4474 29.1658 12.9397C28.0351 12.4074 26.965 11.9368 25.9556 11.5279C25.4863 11.3421 24.7654 11.0694 23.793 10.7099C22.8442 10.3628 21.7619 9.9908 20.5462 9.59383C19.3407 9.17224 18.1029 8.7937 16.8328 8.45823C15.573 8.09814 14.3923 7.82448 13.2907 7.63725C12.1892 7.45002 11.2494 7.39253 10.4715 7.46478C9.72738 7.52479 9.25809 7.78871 9.06361 8.25657C8.93054 8.57668 8.96952 9.00191 9.18054 9.53225C9.20731 9.60625 9.21558 9.65556 9.20534 9.68018C9.18487 9.72943 9.1392 9.73549 9.06834 9.69837ZM11.0739 33.4183C9.88649 32.6764 9.21681 31.8308 9.06484 30.8816C8.91287 29.9324 9.03649 28.9776 9.4357 28.0173C9.77349 27.2047 10.2278 26.4232 10.7987 25.6727C11.3695 24.9223 11.9215 24.2519 12.4546 23.6615C12.9774 23.0958 13.5864 22.5302 14.2817 21.9649C15.0006 21.4119 15.9108 20.7792 17.0124 20.0669C18.1376 19.3669 19.5761 18.5013 21.3281 17.4699C23.08 16.4386 25.2505 15.1617 27.8394 13.6392C28.2764 13.4184 28.6012 13.3636 28.8138 13.475C28.9556 13.5492 29.0244 13.6603 29.0205 13.8082C29.0504 13.9438 29.0213 14.0485 28.9331 14.1222C25.2898 16.3818 22.3541 18.4272 20.1257 20.2585C17.9313 22.0775 16.1923 23.7004 14.9089 25.1271C14.6475 25.41 14.2892 25.822 13.8341 26.3632C13.4128 26.8922 12.9778 27.4889 12.529 28.1534C12.0904 28.7933 11.738 29.4333 11.4719 30.0735C11.1853 30.763 11.0577 31.4158 11.0892 32.032C11.1207 32.6483 11.4318 33.111 12.0223 33.4204C12.3766 33.606 12.7585 33.6561 13.168 33.5708C13.3168 33.5588 13.403 33.5589 13.4266 33.5713C13.4739 33.5961 13.4872 33.6331 13.4668 33.6823C13.4361 33.7562 13.3243 33.8176 13.1313 33.8664C12.5085 34.0499 11.8227 33.9006 11.0739 33.4183ZM30.0416 25.9476C29.7109 25.7744 29.5089 25.5336 29.4357 25.2254C29.3625 24.9172 29.377 24.6399 29.4794 24.3937C29.6841 23.9012 30.1081 23.5386 30.7514 23.3059C31.405 23.0485 31.9798 23.0497 32.4758 23.3096C32.8065 23.4828 33.0085 23.7236 33.0817 24.0318C33.155 24.34 33.1404 24.6173 33.038 24.8635C32.8231 25.3806 32.394 25.7555 31.7507 25.9883C31.131 26.2334 30.5613 26.2198 30.0416 25.9476ZM19.9067 34.447C18.9382 33.9397 18.3638 33.3839 18.1835 32.7797C18.037 32.1632 18.0764 31.5841 18.3016 31.0424C18.4858 30.5992 18.7307 30.2177 19.0362 29.898C19.352 29.5536 19.5929 29.32 19.759 29.1971C20.0031 29.0251 20.3098 28.8409 20.6791 28.6446C21.072 28.4606 21.4988 28.2643 21.9594 28.0558C21.313 28.227 20.6953 28.3981 20.1063 28.5694C19.5409 28.753 19.0874 28.8753 18.7457 28.9361C18.6441 28.9729 18.5579 28.9727 18.487 28.9356C18.3925 28.8861 18.3709 28.7998 18.422 28.6767C18.5039 28.4797 18.7157 28.3507 19.0575 28.2899C19.8968 28.0699 20.733 27.7882 21.5661 27.445C22.4228 27.1141 23.2236 26.814 23.9684 26.5445C24.7236 26.2503 25.348 26.0977 25.8417 26.0864C26.3692 26.0629 26.7783 26.0823 27.0688 26.1445C27.3594 26.2068 27.5873 26.2812 27.7527 26.3678C28.0125 26.5039 28.181 26.6522 28.2582 26.8125C28.3456 26.9483 28.3334 27.0468 28.2216 27.1082C27.646 27.3164 27.0192 27.6478 26.3413 28.1023C25.6972 28.5445 25.0614 29.0361 24.4338 29.5769C23.8063 30.1178 23.2531 30.6526 22.7744 31.1815C22.3193 31.7227 21.9996 32.2149 21.8153 32.6582C21.5594 33.2738 21.6677 33.7053 22.1401 33.9528C22.589 34.1879 23.2547 34.2818 24.1374 34.2344C25.0539 34.1748 26.0401 34.0167 27.096 33.7602C28.1755 33.5161 29.1909 33.2533 30.142 32.972C30.2775 32.923 30.3806 32.917 30.4515 32.9541C30.5696 33.016 30.603 33.1085 30.5519 33.2316C30.5243 33.3671 30.4649 33.4409 30.3735 33.453C29.2767 33.808 28.0582 34.1443 26.718 34.4618C25.4118 34.767 24.1448 34.943 22.9173 34.9896C21.7134 35.0486 20.7098 34.8678 19.9067 34.447ZM27.2976 41.8271C26.9827 41.0624 26.8177 40.4212 26.8028 39.9036C26.8012 39.423 26.9488 38.8257 27.2457 38.1116C27.5527 37.3729 27.9901 36.5975 28.5579 35.7854C29.1492 34.9857 29.8385 34.1923 30.6259 33.4054C30.2874 33.5279 29.937 33.6442 29.5748 33.7543C29.2126 33.8644 28.8606 33.9499 28.5189 34.0108C28.4173 34.0475 28.3311 34.0474 28.2602 34.0102C28.1893 33.9731 28.1693 33.9176 28.2 33.8437C28.2716 33.6714 28.5106 33.5117 28.9169 33.3647C29.4382 33.2179 29.9511 33.0219 30.4559 32.7765C30.9606 32.5312 31.5212 32.2551 32.1377 31.9484C34.455 29.8338 36.8015 28.0644 39.177 26.6401C41.5526 25.2157 44.1994 24.0385 47.1175 23.1082C48.6001 22.6555 49.8942 22.4488 50.9997 22.4882C52.1289 22.5399 53.0477 22.7514 53.7564 23.1226C54.4651 23.4938 54.9383 23.9816 55.1761 24.5859C55.4139 25.1903 55.3997 25.8126 55.1336 26.4528C54.8777 27.0684 54.3851 27.665 53.656 28.2426C52.9505 28.8326 51.9816 29.3296 50.7494 29.7335C49.8793 30.0274 48.8809 30.284 47.7541 30.5034C46.6376 30.6982 45.5128 30.8436 44.3797 30.9397C43.2467 31.0359 42.2136 31.0644 41.2806 31.0254C41.2231 31.0253 41.1656 31.0252 41.1081 31.0251C41.0609 31.0003 41.0136 30.9756 40.9664 30.9508C40.801 30.8642 40.7439 30.7593 40.7951 30.6362C40.8565 30.4885 41.0376 30.4334 41.3384 30.471C42.214 30.5099 43.2116 30.4628 44.3313 30.3296C45.4746 30.2089 46.6029 30.0203 47.7163 29.7639C48.8297 29.5076 49.7978 29.2201 50.6206 28.9015C51.6568 28.4847 52.4411 28.0859 52.9733 27.7051C53.5395 27.312 53.884 26.9677 54.0068 26.6722C54.1603 26.3028 54.0363 26.0129 53.6348 25.8026C53.2096 25.5799 52.4981 25.4921 51.5005 25.5392C50.5367 25.5741 49.3525 25.7933 47.9478 26.1969C46.2147 26.6984 44.4219 27.3785 42.5691 28.2371C40.74 29.108 39.0105 30.0162 37.3806 30.9615C35.7845 31.8946 34.4204 32.7543 33.2881 33.5405C34.7416 32.7427 36.0538 32.2156 37.2247 31.9594C38.3955 31.7031 39.4136 31.6067 40.279 31.6702C40.9955 31.7457 41.6254 31.9258 42.1687 32.2104C42.7829 32.5321 43.2124 32.952 43.4573 33.4701C43.7022 33.9882 43.7223 34.4935 43.5175 34.986C43.3128 35.4784 42.9172 35.9459 42.3306 36.3882C41.7676 36.843 40.9853 37.1678 39.9837 37.3628C39.2089 37.4967 38.2538 37.4761 37.1184 37.3012C36.0168 37.1139 35.0409 36.7976 34.1905 36.3521C33.6944 36.0923 33.2999 35.7957 33.007 35.4623C33.2236 36.3254 33.5633 37.238 34.0263 38.2002C34.4995 39.1378 35.0255 39.9831 35.6043 40.736C36.2168 41.4767 36.8066 41.9956 37.3735 42.2925C37.7751 42.5029 38.1873 42.5839 38.6101 42.5355C39.033 42.4871 39.3109 42.3029 39.444 41.9828C39.4645 41.9335 39.4983 41.9213 39.5456 41.946C39.6164 41.9832 39.6416 42.0263 39.6211 42.0756C39.4267 42.5434 39.079 42.8261 38.5782 42.9236C38.1011 43.0335 37.5771 43.0139 37.0062 42.8648C36.7495 42.7903 36.481 42.7096 36.2007 42.6227C35.9543 42.5236 35.7011 42.406 35.4413 42.2699C34.4728 41.7625 33.635 41.1138 32.9279 40.3236C32.2547 39.5211 31.7185 38.7005 31.3192 37.8616C30.9539 37.0106 30.7437 36.2707 30.6885 35.6421C30.0539 36.2692 29.4901 36.9334 28.9972 37.6348C28.5382 38.3239 28.1756 38.9885 27.9094 39.6288C27.5512 40.4906 27.437 41.1804 27.5669 41.6983C27.5969 41.8339 27.5713 41.8955 27.4902 41.883C27.3988 41.8951 27.3347 41.8765 27.2976 41.8271ZM33.6861 35.5932C34.2767 35.9025 35.035 36.1198 35.9609 36.245C36.9105 36.3827 37.7322 36.3783 38.4259 36.2319C38.9944 36.1099 39.455 35.9014 39.8077 35.6064C40.1841 35.3238 40.4388 35.0224 40.5719 34.7023C40.7152 34.3576 40.7266 34.0187 40.6062 33.6858C40.5195 33.3405 40.2873 33.0689 39.9093 32.8709C39.5314 32.6729 39.0262 32.5733 38.394 32.5719C37.7719 32.5459 36.9853 32.6736 36.0342 32.955C35.5027 33.1263 34.9542 33.3038 34.3889 33.4874C33.8472 33.6834 33.3239 33.9041 32.8192 34.1495C32.8153 34.2974 32.818 34.4637 32.8275 34.6486C32.8472 34.8088 32.894 34.9383 32.968 35.0371C33.0421 35.1358 33.1448 35.2346 33.2763 35.3335C33.4078 35.4324 33.5444 35.5189 33.6861 35.5932ZM46.1966 29.1478C46.0549 29.0735 45.9269 28.9315 45.8128 28.7218C45.5616 28.0805 45.5691 27.4397 45.8352 26.7995C46.1525 26.0361 46.7872 25.409 47.7391 24.9182C48.7249 24.4151 49.9344 24.239 51.3674 24.39C52.9965 24.5537 54.7028 24.8778 56.4863 25.3622C58.28 25.8221 60.063 26.4113 61.8354 27.1299C63.6417 27.8362 65.3362 28.6039 66.9189 29.4329C67.5094 29.7423 68.083 30.0578 68.6397 30.3794C69.1964 30.701 69.7243 31.0225 70.2236 31.344C73.5527 33.5077 75.9117 35.5831 77.3007 37.5701C78.7133 39.5695 79.1841 41.1355 78.7133 42.2682C78.5188 42.7361 78.181 43.0989 77.6999 43.3566C77.4763 43.4794 77.1818 43.565 76.8164 43.6135C76.4849 43.6498 76.2365 43.6246 76.0712 43.538C75.9294 43.4637 75.8893 43.3527 75.9507 43.205C76.0223 43.0326 76.2582 42.8113 76.6582 42.5411C77.1259 42.2463 77.4365 41.9143 77.59 41.5449C77.8869 40.8308 77.6802 40.0479 76.97 39.196C76.2936 38.332 75.2893 37.461 73.957 36.5832C72.6586 35.6931 71.218 34.8336 69.6354 34.0045C68.5488 33.4353 67.435 32.8968 66.2941 32.3891C65.1634 31.8568 64.0933 31.3862 63.0839 30.9773C62.6146 30.7915 61.8937 30.5188 60.9213 30.1593C59.9725 29.8122 58.8902 29.4402 57.6745 29.0432C56.469 28.6216 55.2312 28.2431 53.9611 27.9076C52.7013 27.5475 51.5206 27.2739 50.419 27.0867C49.3174 26.8994 48.3777 26.8419 47.5997 26.9142C46.8557 26.9742 46.3864 27.2381 46.1919 27.706C46.0588 28.0261 46.0978 28.4513 46.3088 28.9817C46.3356 29.0557 46.3439 29.105 46.3336 29.1296C46.3132 29.1788 46.2675 29.1849 46.1966 29.1478ZM48.2022 52.8677C47.0148 52.1258 46.3451 51.2802 46.1931 50.331C46.0412 49.3818 46.1648 48.4271 46.564 47.4667C46.9018 46.6541 47.3561 45.8726 47.927 45.1221C48.4978 44.3717 49.0498 43.7013 49.5828 43.1109C50.1057 42.5452 50.7147 41.9796 51.41 41.4143C52.1289 40.8613 53.0391 40.2287 54.1407 39.5163C55.2658 38.8163 56.7044 37.9507 58.4564 36.9193C60.2083 35.888 62.3788 34.6111 64.9677 33.0886C65.4047 32.8678 65.7295 32.813 65.9421 32.9244C66.0838 32.9986 66.1527 33.1097 66.1488 33.2576C66.1787 33.3932 66.1496 33.4979 66.0614 33.5716C62.4181 35.8312 59.4823 37.8766 57.254 39.7079C55.0596 41.5269 53.3206 43.1498 52.0371 44.5765C51.7757 44.8594 51.4175 45.2714 50.9624 45.8126C50.5411 46.3416 50.1061 46.9383 49.6573 47.6028C49.2187 48.2427 48.8663 48.8827 48.6002 49.5229C48.3136 50.2124 48.186 50.8652 48.2175 51.4814C48.249 52.0977 48.56 52.5604 49.1506 52.8698C49.5049 53.0554 49.8868 53.1055 50.2962 53.0202C50.4451 53.0082 50.5313 53.0083 50.5549 53.0207C50.6021 53.0455 50.6155 53.0825 50.5951 53.1317C50.5643 53.2056 50.4525 53.267 50.2596 53.3158C49.6368 53.4993 48.951 53.35 48.2022 52.8677ZM56.5035 53.618C55.7712 53.2344 55.3015 52.7035 55.0944 52.0253C54.8976 51.3225 54.9578 50.5894 55.2751 49.826C55.572 49.1119 56.0767 48.4168 56.7893 47.7406C57.5255 47.0767 58.4794 46.5119 59.6511 46.0462C60.8668 45.5436 62.2066 45.3308 63.6703 45.4079C65.1443 45.4604 66.4364 45.7775 67.5467 46.359C68.4443 46.8293 69.125 47.4407 69.5888 48.1934C70.0628 48.9215 70.2781 49.649 70.2348 50.376C70.4947 50.5121 70.7829 50.753 71.0994 51.0988C71.4396 51.4569 71.5277 51.8329 71.364 52.2269C71.2514 52.4978 70.9935 52.7375 70.5904 52.9461C70.3226 53.1057 69.8738 53.3204 69.2439 53.5902C68.6376 53.8723 68.0396 54.2037 67.4498 54.5844C66.9821 54.8792 66.5837 55.1802 66.2546 55.4876C65.9357 55.7703 65.7199 56.0471 65.6073 56.318C65.4538 56.6873 65.5542 56.9648 65.9085 57.1504C66.3101 57.3608 67.0097 57.4424 68.0073 57.3953C69.0963 57.336 70.1805 57.1843 71.26 56.9402C72.3396 56.6961 73.1856 56.4946 73.7982 56.3357C73.9573 56.2991 74.0604 56.2932 74.1076 56.3179C74.2021 56.3674 74.2238 56.4537 74.1726 56.5768C74.1112 56.7246 73.9958 56.8291 73.8266 56.8903C73.5321 56.9759 72.9651 57.1288 72.1258 57.3488C71.2864 57.5687 70.3423 57.7639 69.2935 57.9341C68.2683 58.1167 67.301 58.1948 66.3916 58.1681C65.942 58.1425 65.5314 58.0923 65.1597 58.0176C64.8219 57.9306 64.5231 57.8191 64.2633 57.6829C63.6255 57.3488 63.218 56.9105 63.0408 56.3679C62.8739 55.8007 62.9184 55.2093 63.1743 54.5937C63.2766 54.3474 63.4196 54.1074 63.603 53.8737C63.7865 53.64 63.9818 53.4124 64.1888 53.191L64.6979 52.6931C63.7562 53.1593 62.8656 53.5024 62.0263 53.7224C61.1971 53.9178 60.3936 54.0516 59.6157 54.1238C58.9629 54.1717 58.3696 54.1458 57.8358 54.0461C57.3255 53.9587 56.8814 53.816 56.5035 53.618ZM58.0011 53.2331C58.4263 53.4558 59.1479 53.519 60.166 53.4226C61.1944 53.3016 62.4704 52.9655 63.994 52.4143C64.1971 52.3408 64.5644 52.2183 65.0959 52.047C65.6613 51.8633 66.2656 51.6552 66.9089 51.4224C67.5624 51.165 68.14 50.8829 68.6415 50.5759C69.177 50.2566 69.5112 49.937 69.6443 49.6169C69.8388 49.149 69.5463 48.7109 68.7667 48.3026C68.0817 47.9437 67.1372 47.7938 65.9333 47.8528C64.7632 47.8995 63.516 48.2357 62.1916 48.8613C60.8334 49.4992 59.7727 50.113 59.0098 50.7029C58.2806 51.2805 57.8291 51.7786 57.655 52.1972C57.4606 52.6651 57.5759 53.0104 58.0011 53.2331ZM71.5194 64.9924C71.2044 64.2277 71.0395 63.5865 71.0245 63.0689C71.0229 62.5883 71.1706 61.991 71.4674 61.2769C71.7745 60.5382 72.2119 59.7628 72.7796 58.9507C73.3709 58.1509 74.0603 57.3576 74.8477 56.5706C74.5091 56.6931 74.1587 56.8094 73.7965 56.9196C73.4343 57.0297 73.0824 57.1152 72.7406 57.1761C72.6391 57.2128 72.5528 57.2126 72.482 57.1755C72.4111 57.1384 72.391 57.0829 72.4217 57.009C72.4934 56.8366 72.7324 56.677 73.1387 56.53C73.6599 56.3832 74.1729 56.1872 74.6776 55.9418C75.1823 55.6964 75.743 55.4204 76.3595 55.1136C78.6768 52.9991 81.0232 51.2297 83.3988 49.8053C85.7743 48.381 88.4212 47.2037 91.3392 46.2735C92.8219 45.8208 94.116 45.6141 95.2215 45.6534C96.3506 45.7052 97.2695 45.9166 97.9782 46.2879C98.6868 46.6591 99.16 47.1469 99.3978 47.7512C99.6356 48.3556 99.6214 48.9778 99.3553 49.6181C99.0994 50.2337 98.6069 50.8303 97.8778 51.4079C97.1723 51.9978 96.2034 52.4948 94.9711 52.8988C94.101 53.1927 93.1026 53.4493 91.9759 53.6687C90.8593 53.8634 89.7345 54.0089 88.6015 54.105C87.4684 54.2011 86.4354 54.2297 85.5023 54.1907C85.4448 54.1906 85.3873 54.1905 85.3299 54.1903C85.2826 54.1656 85.2354 54.1409 85.1881 54.1161C85.0228 54.0295 84.9657 53.9246 85.0169 53.8015C85.0783 53.6538 85.2594 53.5987 85.5602 53.6363C86.4358 53.6752 87.4334 53.628 88.5531 53.4949C89.6964 53.3742 90.8247 53.1856 91.9381 52.9292C93.0514 52.6729 94.0195 52.3854 94.8424 52.0667C95.8786 51.65 96.6628 51.2512 97.1951 50.8703C97.7612 50.4772 98.1057 50.1329 98.2286 49.8374C98.3821 49.4681 98.2581 49.1782 97.8565 48.9679C97.4313 48.7451 96.7199 48.6573 95.7223 48.7045C94.7585 48.7393 93.5743 48.9586 92.1696 49.3622C90.4365 49.8637 88.6436 50.5437 86.7909 51.4023C84.9618 52.2733 83.2322 53.1815 81.6023 54.1268C80.0063 55.0599 78.6421 55.9196 77.5099 56.7058C78.9634 55.9079 80.2756 55.3809 81.4464 55.1246C82.6173 54.8684 83.6354 54.772 84.5007 54.8355C85.2173 54.911 85.8472 55.091 86.3905 55.3757C87.0047 55.6974 87.4342 56.1173 87.6791 56.6354C87.9239 57.1535 87.944 57.6588 87.7393 58.1512C87.5346 58.6437 87.1389 59.1111 86.5523 59.5535C85.9893 60.0082 85.2071 60.3331 84.2055 60.5281C83.4307 60.662 82.4756 60.6414 81.3402 60.4664C80.2386 60.2792 79.2626 59.9629 78.4122 59.5174C77.9162 59.2575 77.5217 58.9609 77.2288 58.6276C77.4453 59.4907 77.7851 60.4033 78.2481 61.3655C78.7213 62.3031 79.2473 63.1483 79.826 63.9013C80.4386 64.642 81.0284 65.1608 81.5953 65.4578C81.9969 65.6682 82.4091 65.7492 82.8319 65.7008C83.2547 65.6524 83.5327 65.4682 83.6657 65.1481C83.6862 65.0988 83.7201 65.0866 83.7673 65.1113C83.8382 65.1484 83.8634 65.1916 83.8429 65.2409C83.6484 65.7087 83.3008 65.9914 82.8 66.0889C82.3228 66.1988 81.7988 66.1792 81.228 66.03C80.9713 65.9555 80.7028 65.8749 80.4225 65.788C80.176 65.6889 79.9229 65.5713 79.663 65.4351C78.6945 64.9278 77.8567 64.279 77.1497 63.4888C76.4764 62.6864 75.9402 61.8657 75.541 61.0269C75.1757 60.1758 74.9654 59.436 74.9103 58.8074C74.2757 59.4345 73.7119 60.0987 73.219 60.8001C72.7599 61.4892 72.3973 62.1538 72.1312 62.794C71.7729 63.6559 71.6588 64.3457 71.7887 64.8636C71.8186 64.9992 71.793 65.0607 71.7119 65.0482C71.6206 65.0604 71.5564 65.0417 71.5194 64.9924ZM77.9079 58.7584C78.4985 59.0678 79.2567 59.2851 80.1827 59.4103C81.1323 59.5479 81.9539 59.5435 82.6476 59.3972C83.2161 59.2752 83.6767 59.0667 84.0295 58.7717C84.4059 58.4891 84.6606 58.1877 84.7937 57.8676C84.937 57.5229 84.9484 57.184 84.8279 56.851C84.7413 56.5058 84.509 56.2342 84.1311 56.0362C83.7531 55.8382 83.248 55.7385 82.6157 55.7372C81.9937 55.7112 81.2071 55.8389 80.2559 56.1202C79.7244 56.2916 79.176 56.4691 78.6106 56.6527C78.0689 56.8487 77.5457 57.0694 77.041 57.3148C77.037 57.4626 77.0398 57.629 77.0492 57.8139C77.0689 57.9741 77.1158 58.1036 77.1898 58.2023C77.2638 58.3011 77.3666 58.3999 77.4981 58.4988C77.6296 58.5976 77.7662 58.6842 77.9079 58.7584Z" fill="white"/>
</svg>
